<svg id="Layer_1" data-name="Layer 1" xmlns="http://www.w3.org/2000/svg" viewBox="0 0 283.46 146.82"><path d="M167.88,212.4H129.05L116.86,168l-12.2,44.4H65.58L93.76,135,66.57,65.58h38.09l12.2,41.67,12.19-41.67h37.84L139.69,135Z" transform="translate(-65.58 -65.58)" fill="#99f500"></path><path d="M276.82,212.4H238L225.8,168l-12.2,44.4H174.52L202.71,135l-27.2-69.37H213.6l12.2,41.67L238,65.58h37.83L248.64,135Z" transform="translate(-65.58 -65.58)" fill="#99f500"></path><polygon points="283.46 146.82 283.46 112.02 253.59 112.02 253.59 0 217.89 0 217.89 146.82 283.46 146.82 283.46 146.82 283.46 146.82" fill="#99f500" fill-rule="evenodd"></polygon></svg>